<svg xmlns="http://www.w3.org/2000/svg" viewBox="0 0 487.87 488"><defs><style>.cls-1{fill:#0d69d5;}.cls-2{fill:#3498da;}.cls-3{fill:#2ecb71;}.cls-4{fill:#27ad61;}.cls-5{fill:#28ad61;}.cls-6{fill:#2980b8;}</style></defs><title>lingwars</title><g id="Layer_2" data-name="Layer 2"><g id="Layer_1-2" data-name="Layer 1"><circle class="cls-1" cx="243.93" cy="241.36" r="190"/><path class="cls-2" d="M367.07,265.18c-7.36,47-46.71,87.58-95.65,98.54-4.53,1-9.17,1.51-13.76,2.24,3.76-11.11,7.23-22.32,11.38-33.28,2.28-6,2.72-11.51.21-17.57a18.91,18.91,0,0,1-1.11-10c1.45-8.33,1.75-8.28-6.56-9.72-.6-.11-1.19-.26-1.79-.32-8.44-.85-16.67-5.18-25.49-1.15-1.13.52-4.64-1.68-5.42-3.37-2.67-5.79-6.31-6.35-11.37-3.43a17.52,17.52,0,0,1-3.43,1.16c-3.86-21.08-5.6-42.14-4-63.7A258.7,258.7,0,0,1,230,141.45c2.91-6.82,5.56-13.75,8.32-20.64l1.13-2.26,2.13-1.28-1.78-1a1.43,1.43,0,0,1-.3-.69,121.53,121.53,0,0,1,55.23,10.7c-.66,1.91-1,4-2,5.68-3.48,5.36-7.3,10.51-10.86,15.82-2.16,3.22-2.88,5.89,1.75,8.23,4.12,2.08,3.47,6.62-.77,8.74-3,1.48-6,2.95-9,4.42,2.3,2.77,4.57,5.56,6.89,8.3.79.93,1.77,1.69,2.54,2.63,3,3.61,4.53,3.77,7-1.1,4-7.79,4.77-17.44,13.9-22.6,2.92-1.65,4.2-6.44,8.94-4.58a80.45,80.45,0,0,1,10.19,4.84c1.77,1,3.14,2.73,4.69,4.12.63-2.31,1.36-4.59,1.85-6.93a17.68,17.68,0,0,0,.05-3.64l12.46,14.39c-.95.68-2.18,1.15-2.8,2.05-6,8.72-13.31,9.57-20.79,2.55-1.19-1.12-3.77-2.32-4.82-1.78-6.14,3.17-14.06,5.47-17.56,10.65-7.1,10.49-11.87,22.57-17.29,34.15A9.33,9.33,0,0,0,279,219c2.69,6.56,5.78,13,9.06,19.26a11.8,11.8,0,0,0,4.87,5c8.84,4.18,17.83,6.5,27.21,1a25.45,25.45,0,0,1,9.65-3.54c5.09-.56,10.3-.15,15.45.11.63,0,1.91,2,1.67,2.52-2.29,4.87,1.88,5.39,4.48,6.68C358.24,253.45,365.93,255.88,367.07,265.18Zm-80.9-127c-3.63-3.18-5.45-5.26-7.7-6.62-2.68-1.62-5.77-2.57-8.63-3.93-1.73-.81-3.75-2.92-4.93-2.49-1.42.52-2.91,3.17-2.8,4.79.1,1.33,2.49,2.49,3.85,3.74,2.19,2,4.47,3.94,6.52,6.08,1.23,1.28,2.67,4.29,3,4.13C278.59,142.6,281.41,140.8,286.17,138.13Z"/><path class="cls-1" d="M238.33,120.81c-2.76,6.89-5.41,13.82-8.32,20.64a258.7,258.7,0,0,0-19.9,83.12c-1.63,21.56.11,42.62,4,63.7,0,.35-.06.69-.11,1-1.62-1.58-3.16-3.24-4.87-4.72s-3.58-3.85-4.93-3.57c-8.43,1.74-16.76,4-25,6.37-1.39.4-2.28,2.27-3.6,3.17-4.59,3.15-9.28,6.16-13.92,9.24-3.63,2.41-5.81,1-7.71-2.47-.9-1.64-3.18-4.23-4-3.95-6.26,2.23-6.5-2.55-7.83-6.16-1.66-4.54-4.76-5-8-1.28-1.69,2-3.4,4-5.1,6q-3.42-10.38-6.85-20.75c7.39-2.76,14.23-9.47,22.94-2.77,1,.79,3.72-.56,5.64-.91-.59-1.57-.74-3.63-1.85-4.61-4.4-3.91-3.82-8-1.33-12.57s5.89-9,1.07-14.31c-.58-.63-.12-3,.63-3.93,3.66-4.61,7-9,4-15.5-.48-1,1.71-3.47,2.9-5.08,5.18-7,10.38-14,15.74-20.87,1.84-2.36,2.55-4.19-.65-5.74q-15.3-7.43-30.61-14.81l21.84-24.63c3.37,2.48,6.58,5.24,10.15,7.39,6.95,4.18,14.92-.32,14.45-8.36-.42-7.3.31-13.63,7.67-17.31.42-.21.54-1,.8-1.56l-.15.2,1.41-1,21.94-6.61C229.8,128,231.69,128.26,238.33,120.81Zm-55,150.1c-3,.38-6.56.66-10.07,1.41-1.14.24-2,1.73-3,2.65,1.25.69,2.51,2,3.73,1.95,5.81-.2,11.62-.64,17.4-1.28,1.67-.18,3.23-1.31,4.84-2a21,21,0,0,0-4.43-1.93C189.29,271.23,186.66,271.2,183.37,270.91Z"/><path class="cls-3" d="M367.07,265.18c-1.14-9.3-8.83-11.73-15.69-15.13-2.6-1.29-6.77-1.81-4.48-6.68.24-.5-1-2.48-1.67-2.52-5.15-.26-10.36-.67-15.45-.11a25.45,25.45,0,0,0-9.65,3.54c-9.38,5.46-18.37,3.14-27.21-1a11.8,11.8,0,0,1-4.87-5c-3.28-6.28-6.37-12.7-9.06-19.26a9.33,9.33,0,0,1,.12-6.74c5.42-11.58,10.19-23.66,17.29-34.15,3.5-5.18,11.42-7.48,17.56-10.65,1.05-.54,3.63.66,4.82,1.78,7.48,7,14.8,6.17,20.79-2.55.62-.9,1.85-1.37,2.8-2.05.82.5,1.92.8,2.44,1.51C366.05,196,374.7,228.77,367.07,265.18Z"/><path class="cls-4" d="M129,291.9c1.7-2,3.41-4,5.1-6,3.19-3.76,6.29-3.26,8,1.28,1.33,3.61,1.57,8.39,7.83,6.16.79-.28,3.07,2.31,4,3.95,1.9,3.46,4.08,4.88,7.71,2.47,4.64-3.08,9.33-6.09,13.92-9.24,1.32-.9,2.21-2.77,3.6-3.17,8.29-2.36,16.62-4.63,25-6.37,1.35-.28,3.36,2.2,4.93,3.57s3.25,3.14,4.87,4.72a23.81,23.81,0,0,1,1.22,3.4A244,244,0,0,0,239.7,360c2.8,5.12,1.72,6.74-3.8,6.22l-24.31-3.87c-.66-2.94-.87-6.1-2.14-8.76-.86-1.82-3.47-4.4-4.83-4.15-9.36,1.76-14-4.8-19.3-10.2-7.16-7.28-16.25-13-14.4-26,.89-6.28-2.92-7.91-9-5-4.27,2.07-7.14,1.62-10.83-1.5-2-1.74-6-1.42-9.13-1.57-1.72-.09-3.49.75-5.23,1.18Q132.89,299.16,129,291.9Z"/><path class="cls-5" d="M140.7,170.05q15.31,7.39,30.61,14.81c3.2,1.55,2.49,3.38.65,5.74-5.36,6.87-10.56,13.86-15.74,20.87-1.19,1.61-3.38,4-2.9,5.08,3,6.5-.37,10.89-4,15.5-.75.94-1.21,3.3-.63,3.93,4.82,5.27,1.41,9.77-1.07,14.31s-3.07,8.66,1.33,12.57c1.11,1,1.26,3,1.85,4.61-1.92.35-4.6,1.7-5.64.91-8.71-6.7-15.55,0-22.94,2.77C113.08,234.65,119,200.9,140.7,170.05Z"/><path class="cls-3" d="M235.9,366.26c5.52.52,6.6-1.1,3.8-6.22a244,244,0,0,1-24.51-67.33,23.81,23.81,0,0,0-1.22-3.4c.05-.35.09-.69.11-1a17.52,17.52,0,0,0,3.43-1.16c5.06-2.92,8.7-2.36,11.37,3.43.78,1.69,4.29,3.89,5.42,3.37,8.82-4,17,.3,25.49,1.15.6.06,1.19.21,1.79.32,8.31,1.44,8,1.39,6.56,9.72a18.91,18.91,0,0,0,1.11,10c2.51,6.06,2.07,11.54-.21,17.57-4.15,11-7.62,22.17-11.38,33.28Z"/><path class="cls-3" d="M329.91,150.21a17.68,17.68,0,0,1-.05,3.64c-.49,2.34-1.22,4.62-1.85,6.93-1.55-1.39-2.92-3.11-4.69-4.12a80.45,80.45,0,0,0-10.19-4.84c-4.74-1.86-6,2.93-8.94,4.58-9.13,5.16-9.93,14.81-13.9,22.6-2.48,4.87-4,4.71-7,1.1-.77-.94-1.75-1.7-2.54-2.63-2.32-2.74-4.59-5.53-6.89-8.3,3-1.47,6-2.94,9-4.42,4.24-2.12,4.89-6.66.77-8.74-4.63-2.34-3.91-5-1.75-8.23,3.56-5.31,7.38-10.46,10.86-15.82,1.07-1.64,1.38-3.77,2-5.68l24.48,14.18a23.83,23.83,0,0,0-1.34,3.16c3.19,1.89,6.5,3.57,9.79,5.29l-.16,0c.81.46,1.62.92,2.44,1.37Z"/><path class="cls-1" d="M136.74,306.44c1.74-.43,3.51-1.27,5.23-1.18,3.12.15,7.09-.17,9.13,1.57,3.69,3.12,6.56,3.57,10.83,1.5,6.07-2.95,9.88-1.32,9,5-1.85,13,7.24,18.71,14.4,26,5.31,5.4,9.94,12,19.3,10.2,1.36-.25,4,2.33,4.83,4.15,1.27,2.66,1.48,5.82,2.14,8.76Q163,349.36,136.74,306.44Z"/><path class="cls-5" d="M195.61,125.58c-.26.53-.38,1.35-.8,1.56-7.36,3.68-8.09,10-7.67,17.31.47,8-7.5,12.54-14.45,8.36-3.57-2.15-6.78-4.91-10.15-7.39Z"/><path class="cls-5" d="M238.33,120.81c-6.64,7.45-8.53,7.2-19.52-2.6l20.7-2.63a1.52,1.52,0,0,0,.29.69c-.11.76-.23,1.52-.34,2.28Z"/><path class="cls-2" d="M327.67,148.91c-3.29-1.72-6.6-3.4-9.79-5.29a23.83,23.83,0,0,1,1.34-3.16Z"/><path class="cls-2" d="M330,150.26c-.82-.45-1.63-.91-2.44-1.37C328.32,149.35,329.13,149.81,330,150.26Z"/><path class="cls-5" d="M196.87,124.82l-1.41,1Z"/><path class="cls-3" d="M286.17,138.13c-4.76,2.67-7.58,4.47-10.64,5.7-.38.16-1.82-2.85-3-4.13-2.05-2.14-4.33-4.07-6.52-6.08-1.36-1.25-3.75-2.41-3.85-3.74-.11-1.62,1.38-4.27,2.8-4.79,1.18-.43,3.2,1.68,4.93,2.49,2.86,1.36,6,2.31,8.63,3.93C280.72,132.87,282.54,135,286.17,138.13Z"/><path class="cls-6" d="M239.46,118.55c.11-.76.23-1.52.34-2.28l1.79,1Z"/><path class="cls-4" d="M183.37,270.91c3.29.29,5.92.32,8.47.8a21,21,0,0,1,4.43,1.93c-1.61.69-3.17,1.82-4.84,2-5.78.64-11.59,1.08-17.4,1.28-1.22,0-2.48-1.26-3.73-1.95,1-.92,1.86-2.41,3-2.65C176.81,271.57,180.42,271.29,183.37,270.91Z"/><path class="cls-1" d="M229.61,488c-9.25-1.25-18.56-2.16-27.74-3.8-56.25-10-103.32-36.63-141.1-79.37-34.47-39-54.55-84.65-59.51-136.38C-4.88,204.62,11.43,146.61,50.61,95.68,86.89,48.51,134.33,17.93,192.68,5.76c72.9-15.21,139.76-.29,199.12,44.68,47.72,36.15,77.8,84.17,90.54,142.75,2.25,10.35,3.12,21,4.65,31.5.24,1.69.58,3.37.88,5.06v28.58Q485.95,272.65,484,287q-.34,2.59-.95,5.15c-1.5,6.39-7.74,10.82-13.76,9.82a12.16,12.16,0,0,1-10.25-13.35c.89-8.51,2.56-16.95,3.28-25.47,4.36-51.88-7.81-99.65-37.3-142.53C391.62,72,345.89,40.24,287.94,29.37c-85.45-16-157.63,9.79-213.81,76.27-36.7,43.44-52.41,94.87-49.19,151.57A218.66,218.66,0,0,0,185.43,455.39c58.07,15.9,113.86,8.85,166.42-20.69,8.22-4.62,15.49-5.86,24.67-3.22,24.67,7.12,49.61,13.26,74.45,19.77.89.23,1.8.34,3.41.64-3-11.6-5.92-22.7-8.84-33.8q-6.8-25.74-13.64-51.48c-1.47-5.54-.49-10.46,4-14.24,3.76-3.17,8.46-3.95,12.39-1.31,3,2,6.13,5.45,7.05,8.83,9.52,34.87,18.68,69.83,27.78,104.81,3,11.56-4.76,19.11-16.38,16.07-27.6-7.21-55.33-14-82.71-22-11.3-3.29-20.4-2.67-31.13,3.11-27.79,15-58,22.8-89.55,25.26-1.72.13-3.42.57-5.13.87Z"/></g></g></svg>